<?xml version="1.0" encoding="UTF-8"?>
<svg id="Calque_4" data-name="Calque 4" xmlns="http://www.w3.org/2000/svg" viewBox="0 0 551.78 551.9">
  <defs>
    <style>
      .cls-1 {
        fill: #959595;
      }
    </style>
  </defs>
  <path class="cls-1" d="M323.44,75.66c26.29,0,47.68,21.39,47.68,47.68s-21.39,47.68-47.68,47.68h-54.34v-95.36h54.34M323.44,55.66h-74.34v135.36h74.34c37.38,0,67.68-30.3,67.68-67.68h0c0-37.38-30.3-67.68-67.68-67.68h0Z"/>
  <path class="cls-1" d="M229.1,75.66v95.36h-54.34c-26.29,0-47.68-21.39-47.68-47.68s21.39-47.68,47.68-47.68h54.34M249.1,55.66h-74.34c-37.38,0-67.68,30.3-67.68,67.68h0c0,37.38,30.3,67.68,67.68,67.68h74.34V55.66h0Z"/>
  <path class="cls-1" d="M323.44,202.02c26.29,0,47.68,21.39,47.68,47.68s-21.39,47.68-47.68,47.68h-6.66c-26.29,0-47.68-21.39-47.68-47.68v-47.68h54.34M323.44,182.02h-74.34v67.68h0c0,37.38,30.3,67.68,67.68,67.68h6.66c37.38,0,67.68-30.3,67.68-67.68h0c0-37.38-30.3-67.68-67.68-67.68h0Z"/>
  <path class="cls-1" d="M229.1,202.02v95.36h-54.34c-26.29,0-47.68-21.39-47.68-47.68s21.39-47.68,47.68-47.68h54.34M249.1,182.02h-74.34c-37.38,0-67.68,30.3-67.68,67.68h0c0,37.38,30.3,67.68,67.68,67.68h74.34v-135.36h0Z"/>
  <path class="cls-1" d="M181.42,330.38c8.04,0,54.67.17,63.09.2v39.35c0,25.25-6.32,42.14-19.33,51.65-9.97,7.28-24.29,10.83-43.76,10.83-26.29,0-47.68-21.39-47.68-47.68v-6.66c0-26.29,21.39-47.68,47.68-47.68M246.94,227.11l-1.06,83.47s-55.53-.2-64.47-.2h0c-37.38,0-67.68,30.3-67.68,67.68v6.66c0,37.38,30.3,67.68,67.68,67.68h0c37.38,0,83.09-11.65,83.09-82.47v-104.43l-17.57-38.39h0Z"/>
  <polygon class="cls-1" points="261.57 55.66 240.98 55.66 240.98 275.95 261.57 275.95 261.57 55.66 261.57 55.66"/>
</svg>