<?xml version="1.0" encoding="UTF-8"?>
<svg xmlns="http://www.w3.org/2000/svg" viewBox="0 0 551.78 551.9">
  <defs>
    <style>
      .cls-1 {
        fill: #959595;
      }
    </style>
  </defs>
  <g id="Calque_5" data-name="Calque 5">
    <g>
      <path class="cls-1" d="M99.59,88.79c-2.29,0-4.46,1.2-7.49,4.29v6.17c32.93,35.66,67.5,69.81,101.1,104.85,39.77,41.48,75.97,95.22,135,109.51-1.37-18.9,13.19-36.12,30.89-40.89-11.12-23.62-31.97-43.16-52.92-58.15-35.92-25.71-81.5-49.45-119.81-73.04-23.84-14.69-54.45-38.05-78.33-49.72-3.63-1.77-6.09-3.03-8.44-3.03h0Z"/>
      <path class="cls-1" d="M172.83,330.54c-.35,0-.55.6-.46,2.33,4.66,7.99,9.63,15.92,15.45,23.12,2.82,3.48,10.19,7.84,8.45,11.6l-12.36-12.32-.75,2.29,27.76,32.41c-.43.7-.89.97-1.35.97-1.19,0-2.4-1.77-3.28-2.51-4.82-4.03-8.47-9.7-13.86-13.12l26.21,33.16c-.45.72-.91.99-1.37.99-1.2,0-2.35-1.88-3.23-2.56-4.02-3.08-8.09-6.32-11.6-10-.07-.01-.13-.02-.2-.02-.94,0-.84,1.68-.56,2.31,2.66,5.82,25.01,27.7,30.98,32.28,27.83,21.31,68.21,31.64,105.12,31.64,9.05,0,17.89-.62,26.28-1.85,12.28-1.8,52.19-11.61,56.05-24.18,7.86-25.56-31.13-47.56-30.18-74.1-8.42,3.74-16.04,9.43-24.36,13.43-22.25,10.7-44.68,15.83-66.56,15.83-38.27,0-74.86-15.69-105.84-44.68l6.94,13.87c-10.5-7.36-16.94-18.63-24.93-28.27-.72-.86-1.74-2.62-2.34-2.62h0Z"/>
      <path class="cls-1" d="M425.12,333.9c-14.06,0-26.43,11.85-24.39,31.39,2.43,23.23,34.57,41.5,30.88,67.07,22.96-17.64,35.46-47.18,23.41-75.07-7.02-16.25-18.97-23.4-29.9-23.4h0Z"/>
      <path class="cls-1" d="M359.68,284.45c-9.08,0-25.93,19.57-19.23,28.51l50.26,36.1c4.5-7.58,8.87-16.99,17.74-20.05l-.02-2.24c-3.59-3.61-7.07-7.35-10.75-10.86-4.5-4.3-33.79-30.6-36.69-31.31-.41-.1-.84-.15-1.3-.15h0Z"/>
    </g>
  </g>
  <g id="Calque_6" data-name="Calque 6">
    <path class="cls-1" d="M414.78,50.06c47.97,0,87,39.03,87,87v277.79c0,47.97-39.03,87-87,87H137c-47.97,0-87-39.03-87-87V137.06c0-47.97,39.03-87,87-87h277.79M414.78.06H137C61.34.06,0,61.4,0,137.06v277.79C0,490.51,61.34,551.84,137,551.84h277.79c75.66,0,137-61.34,137-137V137.06C551.78,61.4,490.45.06,414.78.06h0Z"/>
  </g>
</svg>