<?xml version="1.0" encoding="UTF-8"?>
<svg id="Calque_1" data-name="Calque 1" xmlns="http://www.w3.org/2000/svg" viewBox="0 0 551.78 551.9">
  <defs>
    <style>
      .cls-1 {
        font-family: CeraPro-Bold, 'Cera Pro';
        font-size: 380px;
        font-weight: 700;
      }

      .cls-1, .cls-2 {
        fill: #959595;
      }
    </style>
  </defs>
  <path class="cls-2" d="M414.5,50.06c48.13,0,87.29,39.16,87.29,87.29v277.21c0,48.13-39.16,87.29-87.29,87.29H137.29c-48.13,0-87.29-39.16-87.29-87.29V137.35c0-48.13,39.16-87.29,87.29-87.29h277.21M414.5.06H137.29C61.47.06,0,61.52,0,137.35v277.21C0,490.38,61.47,551.84,137.29,551.84h277.21c75.82,0,137.29-61.47,137.29-137.29V137.35C551.78,61.52,490.32.06,414.5.06h0Z"/>
  <text class="cls-1" transform="translate(80.38 386.91)"><tspan x="0" y="0">Ps</tspan></text>
</svg>